<?xml version="1.0" encoding="utf-8"?>
<!-- Generator: Adobe Illustrator 20.1.0, SVG Export Plug-In . SVG Version: 6.00 Build 0)  -->
<svg version="1.1" id="Layer_1" xmlns="http://www.w3.org/2000/svg" xmlns:xlink="http://www.w3.org/1999/xlink" x="0px" y="0px"
	 width="160.7px" height="34.4px" viewBox="0 0 160.7 34.4" style="enable-background:new 0 0 160.7 34.4;" xml:space="preserve">
<style type="text/css">
	.st0{fill:#FFFFFF;}
</style>
<g>
	<path class="st0" d="M16.6,31.2c0,2.1-1,3.1-3.1,3.1H3.1c-2.1,0-3.1-1-3.1-3.1V23h5.1v7h6.3v-6.7L1.1,13.6C0.4,12.8,0,11.9,0,10.8
		V3.2C0,1.1,1,0,3.1,0h10.3c2.1,0,3.1,1,3.1,3.1v7.7h-5.1V4.3H5.1v6.2l10.3,9.7c0.7,0.7,1.1,1.6,1.1,2.8v8.2H16.6z"/>
	<path class="st0" d="M37.9,34.4h-5.2V19h-7v15.4h-5.1V0h5.1v14.2h7V0h5.2V34.4z"/>
	<path class="st0" d="M59.2,31.2c0,2.1-1.1,3.1-3.2,3.1H45.2c-2.1,0-3.1-1-3.1-3.1V0h5.1v30h6.9V0h5.1V31.2z"/>
	<path class="st0" d="M78.3,4.5h-5.7v29.8h-5.1V4.5h-5.7V0h16.5V4.5z"/>
	<path class="st0" d="M95.9,4.5h-5.7v29.8h-5.1V4.5h-5.7V0h16.5C95.9,0,95.9,4.5,95.9,4.5z"/>
	<path class="st0" d="M112,34.4H98.5V0h5.1v29.8h8.4V34.4z"/>
	<path class="st0" d="M119.6,34.4h-4.9v-5.3h4.9V34.4z"/>
	<path class="st0" d="M139.9,31.2c0,2.1-1,3.1-3.1,3.1h-10.3c-2.1,0-3.1-1-3.1-3.1V24h5.1v6h6.4V19.6h-8.5c-2,0-3.1-1-3.1-3.1V3.2
		c0-2.1,1-3.2,3.1-3.2h10.5c2.1,0,3.1,1.1,3.1,3.2L139.9,31.2L139.9,31.2z M134.8,15.3V4.4h-6.6v10.9
		C128.2,15.3,134.8,15.3,134.8,15.3z"/>
	<path class="st0" d="M160.7,31.2c0,2.1-1,3.1-3.1,3.1h-10.4c-2.1,0-3.1-1-3.1-3.1v-28c0-2.1,1-3.2,3.1-3.2h10.4
		c2.1,0,3.1,1.1,3.1,3.2v7.3h-5.1v-6h-6.5v10.3h8.5c2.1,0,3.1,1,3.1,3.1V31.2z M155.7,30V19.1h-6.6V30H155.7z"/>
</g>
</svg>
